<?xml version="1.0" encoding="UTF-8" standalone="no"?>
<svg
   xmlns:dc="http://purl.org/dc/elements/1.1/"
   xmlns:cc="http://creativecommons.org/ns#"
   xmlns:rdf="http://www.w3.org/1999/02/22-rdf-syntax-ns#"
   xmlns:svg="http://www.w3.org/2000/svg"
   xmlns="http://www.w3.org/2000/svg"
   height="800px"
   width="800px"
   version="1.1"
   id="Layer_1"
   viewBox="0 0 512.001 512.001"
   xml:space="preserve"><metadata
   id="metadata49"><rdf:RDF><cc:Work
       rdf:about=""><dc:format>image/svg+xml</dc:format><dc:type
         rdf:resource="http://purl.org/dc/dcmitype/StillImage" /><dc:title></dc:title></cc:Work></rdf:RDF></metadata><defs
   id="defs47" />





<g
   id="g1033"
   transform="translate(13.3385,-29.752792)"><g
     id="g878"
     transform="rotate(-153,233.62802,201.42085)"><path
       style="fill:#eaad6a;fill-opacity:1"
       d="M 326.001,83.25 C 294.99,53.023 259.777,28.535 226.848,14.295 187.458,-2.74 152.519,-4.587 125.806,8.951 99.093,22.489 79.927,51.758 70.374,93.597 c -7.986,34.975 -9.057,77.853 -3.017,120.736 0.371,2.634 2.02,4.913 4.405,6.09 l 51.496,25.399 c 4.898,2.418 10.895,-0.848 11.54,-6.257 l 5.694,-47.654 50.491,37.441 c 4.875,3.616 12.055,0.506 12.773,-5.504 l 6.174,-51.672 36.789,12.041 c 5.134,1.682 10.571,-2.293 10.542,-7.686 l -0.329,-60.631 48.703,36.115 c 4.722,3.503 11.689,0.709 12.708,-5.064 l 9.964,-56.547 c 0.463,-2.619 -0.4,-5.297 -2.306,-7.154 z"
       id="path2" /><path
       style="fill:#d89660;fill-opacity:1"
       d="m 105.432,109.423 c 0,-37.419 9.594,-72.593 26.443,-103.213 -2.065,0.833 -4.091,1.74 -6.067,2.741 -26.712,13.538 -45.88,42.807 -55.433,84.646 -7.986,34.975 -9.057,77.853 -3.017,120.736 0.371,2.634 2.02,4.913 4.405,6.09 l 51.496,25.399 c 4.898,2.418 10.895,-0.848 11.54,-6.257 L 136.97,221.4 c -20,-32.593 -31.538,-70.936 -31.538,-111.977 z"
       id="path4" /></g><g
     id="g46"
     transform="matrix(-0.50000098,0,0,0.50000098,343.50795,59.504584)"><g
       id="g42"><g
         id="g12"><g
           id="g8"><path
             style="fill:#8a8e4d"
             d="M 403.383,332.812 V 444.401 C 403.383,481.767 313.11,512 201.691,512 131.12,512 68.957,499.856 32.949,481.427 14.436,472.001 2.886,460.961 0.509,448.987 0.169,447.458 0,445.93 0,444.401 V 332.812 c 0,-0.34 0,-0.679 0.084,-1.018 -0.084,-0.17 -0.084,-0.255 0,-0.34 0,-0.595 0.085,-1.189 0.17,-1.783 0.085,-0.255 0.085,-0.51 0.17,-0.765 0.085,-0.68 0.254,-1.358 0.51,-2.038 v -0.085 c 0.34,-1.358 0.849,-2.633 1.444,-3.991 11.21,-24.373 61.23,-44.499 128.318,-52.907 8.747,-1.105 17.834,-2.038 27.09,-2.718 h 0.51 c 14.012,-1.104 28.535,-1.613 43.396,-1.613 14.861,0 29.383,0.509 43.395,1.613 h 0.509 c 9.256,0.68 18.343,1.613 27.09,2.718 67.089,8.407 117.108,28.534 128.318,52.907 0.595,1.358 1.104,2.633 1.444,3.991 v 0.085 c 0.255,0.68 0.424,1.358 0.509,2.038 0.17,0.849 0.255,1.613 0.34,2.548 v 0.34 c 0.086,0.339 0.086,0.678 0.086,1.018 z"
             id="path2-3" /><path
             style="opacity:0.1;fill:#e8e8e9"
             d="m 403.383,333.152 v 5.35 c 0,37.366 -90.273,67.683 -201.692,67.683 C 90.272,406.185 0,375.868 0,338.502 v -5.35 c 0,0.849 0.084,1.613 0.169,2.378 2.633,26.326 50.274,48.916 117.958,59.191 2.378,0.34 4.671,0.68 7.049,1.019 3.821,0.594 7.643,1.104 11.549,1.529 1.614,0.085 3.312,0.255 5.01,0.509 9.427,1.019 19.193,1.784 29.213,2.293 6.709,0.339 13.503,0.594 20.382,0.679 3.397,0.085 6.879,0.085 10.361,0.085 3.482,0 6.963,0 10.36,-0.085 6.879,-0.085 13.672,-0.34 20.382,-0.679 10.021,-0.509 19.787,-1.274 29.213,-2.293 1.698,-0.254 3.397,-0.424 5.01,-0.509 3.907,-0.425 7.728,-0.935 11.549,-1.529 2.378,-0.339 4.671,-0.679 7.049,-1.019 67.684,-10.275 115.325,-32.865 117.958,-59.191 0.086,-0.765 0.171,-1.529 0.171,-2.378 z"
             id="path4-4" /><path
             style="fill:#d6e0a5"
             d="m 403.383,332.472 v 0.68 c 0,0.849 -0.085,1.613 -0.17,2.378 -3.567,26.411 -50.954,48.746 -117.958,59.191 -2.378,0.34 -4.671,0.68 -7.049,1.019 -2.378,0.34 -4.756,0.594 -7.133,0.934 -1.444,0.17 -2.973,0.34 -4.416,0.595 -1.613,0.085 -3.312,0.255 -5.01,0.509 -6.285,0.594 -12.738,1.189 -19.278,1.614 -3.312,0.255 -6.624,0.509 -9.936,0.679 -6.709,0.255 -13.503,0.509 -20.382,0.679 -3.397,0.085 -6.879,0.085 -10.36,0.085 -3.482,0 -6.964,0 -10.361,-0.085 -6.879,-0.17 -13.672,-0.424 -20.382,-0.679 -3.312,-0.17 -6.624,-0.424 -9.936,-0.679 -6.539,-0.425 -12.993,-1.02 -19.278,-1.614 -1.698,-0.254 -3.397,-0.424 -5.01,-0.509 -1.443,-0.255 -2.972,-0.425 -4.416,-0.595 -2.378,-0.34 -4.756,-0.594 -7.133,-0.934 -2.378,-0.339 -4.671,-0.679 -7.049,-1.019 C 51.123,384.276 3.736,361.941 0.169,335.53 0.084,334.765 0,334.001 0,333.152 v -0.68 c 0,-0.254 0,-0.424 0.084,-0.678 -0.084,-0.17 -0.084,-0.255 0,-0.34 0.085,-0.935 0.17,-1.699 0.34,-2.548 0.085,-0.425 0.169,-0.849 0.169,-1.274 -0.084,-0.169 0,-0.339 0.085,-0.509 0,-0.17 0,-0.425 0.085,-0.68 0.17,-0.509 0.255,-1.103 0.51,-1.613 0.255,-0.765 0.595,-1.613 0.934,-2.463 10.531,-24.203 58.512,-44.245 123.308,-53.162 7.728,-1.103 15.711,-2.038 23.948,-2.717 0.085,-0.085 0.255,-0.085 0.34,-0.085 16.56,-1.529 33.969,-2.293 51.888,-2.293 17.919,0 35.328,0.764 51.888,2.293 0.085,0 0.255,0 0.34,0.085 8.238,0.679 16.221,1.614 23.948,2.717 64.796,8.917 112.778,28.959 123.308,53.162 0.594,1.359 1.104,2.718 1.444,4.076 0.17,0.85 0.17,1.614 0.339,2.463 0.17,0.849 0.255,1.613 0.34,2.548 v 0.34 c 0,0.169 0.085,0.424 0.085,0.678 z"
             id="path6-2" /></g><path
           style="fill:#d6e0a5"
           d="m 336.696,426.451 v 31.189 c -16.248,4.913 -34.889,8.949 -55.283,11.888 v -31.189 c 20.395,-2.939 39.035,-6.975 55.283,-11.888 z"
           id="path10-6" /></g><path
         style="opacity:0.3;fill:#040000"
         d="m 402.619,326.443 c -0.085,0.17 -0.085,0.255 -0.17,0.34 v 0.085 c -9.511,34.309 -95.708,61.144 -200.757,61.144 -105.05,0 -191.246,-26.835 -200.758,-61.144 v -0.085 c -0.085,-0.085 -0.085,-0.17 -0.085,-0.255 l -0.085,-0.085 c 0.17,-0.509 0.255,-1.103 0.51,-1.613 0.255,-0.765 0.595,-1.613 0.934,-2.463 10.531,-24.203 58.512,-44.245 123.308,-53.162 7.728,-1.103 15.711,-2.038 23.948,-2.717 0.085,-0.085 0.255,-0.085 0.34,-0.085 16.56,-1.529 33.969,-2.293 51.888,-2.293 17.919,0 35.328,0.764 51.888,2.293 0.085,0 0.255,0 0.34,0.085 8.238,0.679 16.221,1.614 23.948,2.717 64.796,8.917 112.778,28.959 123.308,53.162 0.594,1.359 1.103,2.718 1.443,4.076 z"
         id="path14-5" /><g
         id="g26"><g
           id="g22"><path
             style="fill:#8a8e4d"
             d="m 403.383,200.842 v 111.505 c 0,3.396 -0.765,6.793 -2.208,10.02 -0.085,0.17 -0.17,0.34 -0.17,0.425 -15.031,32.44 -98.51,57.153 -199.314,57.153 -100.804,0 -184.283,-24.713 -199.314,-57.153 0,-0.085 -0.085,-0.255 -0.17,-0.425 -0.34,-0.849 -0.679,-1.698 -0.934,-2.463 -0.255,-0.848 -0.51,-1.613 -0.68,-2.462 0,0 0,-0.085 0,-0.17 -0.254,-0.679 -0.34,-1.444 -0.425,-2.208 C 0.084,314.129 0,313.28 0,312.346 V 200.758 c 0,-1.954 0.34,-3.992 0.849,-5.86 0.085,-0.17 0.085,-0.34 0.17,-0.425 0.34,-1.273 0.849,-2.547 1.359,-3.736 11.295,-24.373 61.399,-44.499 128.403,-52.907 8.747,-1.104 17.749,-2.038 27.005,-2.718 14.098,-1.018 28.789,-1.613 43.906,-1.613 15.116,0 29.807,0.595 43.905,1.613 9.256,0.68 18.258,1.614 27.005,2.718 67.004,8.407 117.108,28.534 128.403,52.907 0.51,1.189 1.019,2.463 1.359,3.736 0.085,0.085 0.085,0.255 0.17,0.425 0.509,1.952 0.849,3.906 0.849,5.944 z"
             id="path16-9" /><path
             style="opacity:0.1;fill:#e8e8e9"
             d="m 403.383,201.182 v 5.351 c 0,28.278 -51.888,52.482 -125.516,62.672 -1.699,0.17 -3.482,0.425 -5.18,0.68 -22.08,2.717 -46.029,4.246 -70.995,4.246 -24.967,0 -48.916,-1.529 -70.996,-4.246 -1.699,-0.255 -3.482,-0.51 -5.18,-0.68 C 51.888,259.015 0,234.811 0,206.533 v -5.351 c 0,0.765 0.084,1.614 0.169,2.378 2.718,26.921 52.652,49.935 122.969,59.871 0.679,0.085 1.358,0.17 2.038,0.255 5.435,0.848 10.87,1.443 16.56,2.038 2.548,0.255 5.096,0.509 7.728,0.764 2.718,0.254 5.52,0.509 8.322,0.679 h 0.51 c 10.7,0.85 21.74,1.359 33.035,1.529 3.397,0.084 6.879,0.084 10.361,0.084 3.482,0 6.963,0 10.36,-0.084 11.295,-0.17 22.335,-0.679 33.035,-1.529 h 0.509 c 2.803,-0.17 5.605,-0.425 8.322,-0.679 2.633,-0.255 5.18,-0.509 7.728,-0.764 5.69,-0.595 11.125,-1.19 16.56,-2.038 l 2.039,-0.255 c 70.316,-9.936 120.25,-32.95 122.968,-59.871 0.085,-0.764 0.17,-1.613 0.17,-2.378 z"
             id="path18-0" /><path
             style="fill:#d6e0a5"
             d="m 403.383,200.418 v 0.764 c 0,0.765 -0.085,1.614 -0.17,2.378 -3.652,26.921 -53.332,49.765 -122.968,59.871 l -2.039,0.255 c -2.378,0.339 -4.756,0.594 -7.133,0.933 -3.142,0.34 -6.2,0.68 -9.426,1.105 -2.633,0.255 -5.35,0.509 -8.068,0.679 -2.803,0.254 -5.605,0.509 -8.492,0.764 -0.934,0 -1.784,0.085 -2.718,0.17 -3.312,0.255 -6.624,0.425 -9.936,0.595 -6.709,0.339 -13.503,0.594 -20.382,0.764 H 191.33 c -6.879,-0.17 -13.672,-0.425 -20.382,-0.764 -3.312,-0.17 -6.624,-0.34 -9.936,-0.595 -0.934,-0.085 -1.783,-0.17 -2.718,-0.17 -2.887,-0.255 -5.69,-0.51 -8.492,-0.764 -2.718,-0.17 -5.435,-0.424 -8.068,-0.679 -3.227,-0.425 -6.284,-0.765 -9.426,-1.105 -2.378,-0.339 -4.756,-0.594 -7.133,-0.933 -0.679,-0.085 -1.359,-0.17 -2.038,-0.255 C 53.501,253.324 3.821,230.481 0.169,203.56 0.084,202.796 0,201.947 0,201.182 v -0.764 c 0,-0.849 0.084,-1.699 0.169,-2.547 0.085,-0.85 0.17,-1.699 0.425,-2.548 0,-0.255 0.085,-0.595 0.17,-0.85 h 401.855 c 0.185,0.708 0.159,1.442 0.277,2.153 0.208,1.034 0.343,2.082 0.404,3.142 0.006,0.219 0.083,0.427 0.083,0.65 z"
             id="path20-0" /></g><path
           style="fill:#d6e0a5"
           d="M 336.696,294.411 V 325.6 c -16.248,4.913 -34.889,8.949 -55.283,11.888 v -31.189 c 20.395,-2.94 39.035,-6.975 55.283,-11.888 z"
           id="path24" /></g><path
         style="opacity:0.3;fill:#040000"
         d="m 402.534,194.472 v 0.425 c -9.766,34.309 -95.878,61.144 -200.842,61.144 -104.965,0 -191.076,-26.835 -200.843,-61.144 v -0.425 z"
         id="path28" /><g
         id="g40"><g
           id="g36"><path
             style="fill:#8a8e4d"
             d="m 403.383,68.787 v 111.504 c 0,3.566 -0.85,7.049 -2.378,10.445 -0.594,1.274 -1.274,2.463 -2.038,3.736 -19.363,30.573 -100.294,53.502 -197.275,53.502 -96.982,0 -177.913,-22.929 -197.276,-53.502 -0.764,-1.273 -1.444,-2.462 -2.038,-3.736 0,-0.085 -0.085,-0.255 -0.17,-0.425 -0.34,-0.763 -0.679,-1.613 -0.934,-2.462 C 1.019,187.17 0.849,186.49 0.679,185.811 0.594,185.556 0.51,185.217 0.51,184.962 0.34,184.282 0.255,183.688 0.17,183.009 0.084,182.074 0,181.225 0,180.291 V 68.702 C 0.679,31.506 90.698,1.528 201.692,1.528 c 68.617,0 129.252,11.465 165.684,29.044 21.231,10.191 34.309,22.505 35.838,35.838 0.084,0.763 0.169,1.613 0.169,2.377 z"
             id="path30" /><path
             style="opacity:0.1;fill:#e8e8e9"
             d="m 403.383,69.127 v 5.35 c 0,28.958 -54.351,53.671 -130.781,63.352 -22.08,2.718 -45.943,4.246 -70.91,4.246 -24.967,0 -48.831,-1.528 -70.911,-4.246 C 54.35,128.148 0,103.435 0,74.478 v -5.35 c 0,30.402 59.616,56.049 141.736,64.541 5.266,0.51 10.615,1.019 16.05,1.443 14.098,1.02 28.789,1.614 43.906,1.614 15.116,0 29.807,-0.594 43.905,-1.614 5.435,-0.424 10.785,-0.933 16.051,-1.443 82.119,-8.493 141.735,-34.14 141.735,-64.542 z"
             id="path32" /><path
             style="fill:#d6e0a5"
             d="m 403.383,68.363 v 0.424 c -0.51,30.487 -59.956,56.219 -141.736,64.881 -5.266,0.51 -10.615,1.019 -16.051,1.443 -14.097,1.02 -28.789,1.614 -43.905,1.614 -15.117,0 -29.808,-0.594 -43.906,-1.614 C 152.35,134.687 147,134.178 141.735,133.668 59.956,125.006 0.51,99.274 0,68.787 V 68.363 C 0,30.657 90.272,0 201.692,0 c 67.259,0 126.79,11.21 163.476,28.364 22.929,10.7 36.941,23.863 38.045,38.046 0.17,0.594 0.17,1.273 0.17,1.953 z"
             id="path34" /></g><path
           style="fill:#d6e0a5"
           d="m 336.696,162.37 v 31.189 c -16.248,4.913 -34.889,8.949 -55.283,11.888 v -31.189 c 20.395,-2.939 39.035,-6.975 55.283,-11.888 z"
           id="path38" /></g></g><path
       style="opacity:0.2;fill:#ffffff"
       d="M 201.692,0 V 512 C 131.121,512 68.958,499.856 32.95,481.427 14.437,472.001 2.887,460.961 0.51,448.987 0.169,447.458 0,445.93 0,444.401 V 332.472 c 0,-0.254 0,-0.424 0.084,-0.678 -0.084,-0.17 -0.084,-0.255 0,-0.34 0,-0.595 0.085,-1.189 0.17,-1.783 0,-0.68 0.085,-1.36 0.34,-2.039 -0.084,-0.169 0,-0.339 0.085,-0.509 0,-0.255 0,-0.425 0.17,-0.595 0.085,-0.594 0.254,-1.103 0.425,-1.698 0.255,-0.765 0.595,-1.613 0.934,-2.463 -0.34,-0.849 -0.679,-1.698 -0.934,-2.463 -0.255,-0.848 -0.51,-1.613 -0.68,-2.462 0,0 0,-0.085 0,-0.17 C 0.34,316.593 0.254,315.828 0.169,315.064 0.084,314.129 0,313.28 0,312.346 V 200.418 c 0,-0.849 0.084,-1.699 0.169,-2.547 0.085,-0.85 0.17,-1.699 0.425,-2.548 0,-0.255 0.085,-0.51 0.255,-0.85 0.254,-1.358 0.764,-2.801 1.359,-4.161 C 1.868,189.549 1.529,188.699 1.274,187.85 1.019,187.171 0.849,186.491 0.679,185.812 0.594,185.557 0.51,185.218 0.51,184.963 0.34,184.283 0.255,183.689 0.17,183.01 0.084,182.074 0,181.225 0,180.291 V 68.363 C 0,30.657 90.272,0 201.692,0 Z"
       id="path44" /></g><g
     id="g957"><path
       style="fill:#ffdeb3;fill-opacity:1"
       d="m 387.644,258.156 c -2.047,-5.989 -10.236,-7.3 -14.042,-2.226 l -26.645,35.527 -28.489,-56.978 c -2.904,-5.811 -11.479,-5.812 -14.383,0 l -29.319,58.637 -26.419,-26.419 c -3.535,-3.535 -9.605,-2.931 -12.375,1.225 l -26.622,39.933 -28.112,-56.221 c -2.709,-5.42 -10.521,-5.908 -13.882,-0.864 l -28.004,42.005 -27.631,-36.843 c -3.807,-5.073 -11.995,-3.764 -14.042,2.226 -11.248,32.93 -17.442,65.397 -17.442,91.419 0,89.562 72.863,162.425 162.425,162.425 89.562,0 162.425,-72.863 162.425,-162.425 0,-26.024 -6.195,-58.491 -17.443,-91.421 z"
       id="path10" /><path
       style="fill:#f4d0a4;fill-opacity:1"
       d="m 139.739,315.268 c 0,-8.37 0.406,-16.645 1.162,-24.816 l -1.549,2.323 -27.631,-36.843 c -3.807,-5.073 -11.995,-3.764 -14.042,2.226 -11.247,32.93 -17.442,65.397 -17.442,91.419 0,83.879 63.911,153.108 145.594,161.556 -52.916,-48.601 -86.092,-118.355 -86.092,-195.865 z"
       id="path12" /></g></g>







</svg>
